<svg width="43" height="45" viewBox="0 0 43 45" fill="none" xmlns="http://www.w3.org/2000/svg">
<path d="M36.7918 0H11.7831C11.2308 0 10.7828 0.468983 10.7828 1.04685V16.698H12.1587C11.745 16.1452 11.5203 15.4679 11.5203 14.755C11.5198 13.9106 11.8343 13.1168 12.4052 12.5199C12.5226 12.3971 12.6509 12.2876 12.7839 12.1874V2.09378H35.7914V2.8459L25.2879 10.8267V44.9999L35.8486 36.9757C35.983 37.3882 36.3523 37.6872 36.7918 37.6872C37.3442 37.6872 37.7921 37.218 37.7921 36.6404V1.04685C37.7921 0.468464 37.3442 0 36.7918 0ZM29.256 28.7092C28.7841 28.7092 28.391 28.0998 28.2899 27.2835H27.1636V26.3675H28.3055C28.4252 25.6013 28.8027 25.0375 29.255 25.0375C29.8036 25.0375 30.2476 25.8589 30.2476 26.8735C30.2486 27.8872 29.8041 28.7092 29.256 28.7092ZM12.4056 27.1956C12.5233 27.3177 12.6508 27.4272 12.7834 27.5263V36.6404C12.7834 37.2181 12.335 37.6872 11.7831 37.6872C11.2308 37.6872 10.7828 37.218 10.7828 36.6404V23.0158H12.1587C11.2343 24.2548 11.3159 26.054 12.4056 27.1956ZM19.5606 18.886C19.9587 19.3026 19.9587 19.9764 19.5606 20.3929L14.6855 25.4954C14.4869 25.7024 14.2263 25.8071 13.9658 25.8077C13.7052 25.8071 13.4446 25.7034 13.246 25.4954C12.8485 25.0788 12.849 24.4046 13.246 23.989L16.3841 20.7047H6.22553C5.66335 20.7047 5.20786 20.228 5.20786 19.6397C5.20786 19.0514 5.66285 18.5744 6.22602 18.5744H16.3835L13.2459 15.2904C12.8489 14.8749 12.8484 14.2001 13.2459 13.7845C13.6436 13.3684 14.2883 13.3684 14.6859 13.7845L19.5606 18.886Z" fill="black"/>
</svg>
